<svg width="8" height="15" viewBox="0 0 8 15" version="1.1" xmlns="http://www.w3.org/2000/svg" xmlns:xlink="http://www.w3.org/1999/xlink">
<title>Fill 2.svg</title>
<desc>Created using Figma</desc>
<g id="Canvas" transform="translate(-16966 -8632)">
<g id="Fill 2">
<use xlink:href="#path0_fill" transform="translate(16966.8 8632.66)" fill="#FFFFFF"/>
</g>
</g>
<defs>
<path id="path0_fill" fill-rule="evenodd" d="M 2.09076 0.703268C 2.6208 0.196417 3.37473 0.0252249 4.08594 0.00388799C 4.83812 -0.0029041 5.59 0.00120436 6.34219 0.00150263C 6.34516 0.798357 6.34542 1.59551 6.34189 2.39233C 5.85579 2.39147 5.36936 2.39352 4.88325 2.39147C 4.57501 2.37219 4.25849 2.60683 4.20247 2.91369C 4.19508 3.44688 4.1998 3.98037 4.20009 4.5136C 4.91305 4.51655 5.626 4.5127 6.33892 4.51539C 6.28673 5.28673 6.19145 6.05456 6.07967 6.81941C 5.44992 6.82534 4.81981 6.81881 4.1901 6.82269C 4.18449 9.09769 4.19303 11.3727 4.18568 13.6477C 3.25029 13.6515 2.31435 13.6459 1.37899 13.6503C 1.36128 11.375 1.38045 9.09858 1.36926 6.82299C 0.912917 6.81822 0.456311 6.82627 1.7743e-07 6.81914C 0.00174849 6.05429 0.000594618 5.28948 0.000858445 4.52489C 0.456872 4.5193 0.913214 4.52609 1.36926 4.52165C 1.38312 3.7781 1.35537 3.0337 1.38371 2.29078C 1.42944 1.70243 1.65272 1.10966 2.09076 0.703268Z"/>
</defs>
</svg>

