<?xml version="1.0" encoding="UTF-8"?>
<svg width="228px" height="150px" viewBox="0 0 228 150" version="1.1" xmlns="http://www.w3.org/2000/svg" xmlns:xlink="http://www.w3.org/1999/xlink">
    <!-- Generator: Sketch 44.1 (41455) - http://www.bohemiancoding.com/sketch -->
    <title>hamburger</title>
    <desc>Created with Sketch.</desc>
    <defs></defs>
    <g id="Page-1" stroke="none" stroke-width="1" fill="none" fill-rule="evenodd">
        <g id="hamburger" transform="translate(-1.000000, 0.000000)" fill-rule="nonzero" fill="#FFFFFF">
            <path d="M228.294,13.614 C228.294,20.652 222.593,26.352 215.557,26.352 L13.723,26.352 C6.686,26.352 0.986,20.652 0.986,13.614 L0.986,13.614 C0.986,6.578 6.686,0.877 13.723,0.877 L215.557,0.877 C222.593,0.877 228.294,6.578 228.294,13.614 L228.294,13.614 Z" id="Shape"></path>
            <path d="M228.294,75 C228.294,82.038 222.593,87.737 215.557,87.737 L13.723,87.737 C6.686,87.737 0.986,82.038 0.986,75 L0.986,75 C0.986,67.964 6.686,62.263 13.723,62.263 L215.557,62.263 C222.593,62.263 228.294,67.964 228.294,75 L228.294,75 Z" id="Shape"></path>
            <path d="M228.294,136.386 C228.294,143.422 222.593,149.123 215.557,149.123 L13.723,149.123 C6.686,149.123 0.986,143.422 0.986,136.386 L0.986,136.386 C0.986,129.35 6.686,123.649 13.723,123.649 L215.557,123.649 C222.593,123.648 228.294,129.35 228.294,136.386 L228.294,136.386 Z" id="Shape"></path>
        </g>
    </g>
</svg>