<?xml version="1.0" encoding="utf-8"?>
<!-- Generator: Adobe Illustrator 19.2.1, SVG Export Plug-In . SVG Version: 6.00 Build 0)  -->
<svg version="1.1" id="Layer_1" xmlns="http://www.w3.org/2000/svg" xmlns:xlink="http://www.w3.org/1999/xlink" x="0px" y="0px"
	 viewBox="0 0 960 560" style="enable-background:new 0 0 960 560;" xml:space="preserve">
<style type="text/css">
	.st0{fill:#FFFFFF;}
</style>
<g>
	<path class="st0" d="M487.3,252.9c0,5.7-0.2,11.5,0,17.2c0,1.9,0.2,3.9,1.2,5.7c2.6,5,6.7,7.5,12.2,7.6c8.7,0.1,17.5,0.1,26.2,0.1
		c27.8,0,55.7,0,83.5,0c16.9,0,33.9,0,50.8,0c3.7,0,7.3,0,11,0.2c11.9,0.6,25,11.2,25.2,27c0.1,7.3,0,14.7-0.1,22
		c0,1.5,0.1,3-0.1,4.5c-0.3,3.4-2.2,5.5-5.3,6.6c-3.1,1-5.7,0.1-8-2.1c-1.9-1.9-2.2-4.3-2.2-6.8c0-7.8-0.2-15.6,0.1-23.4
		c0.2-5.8-5.4-12.5-12.3-12.4c-10.9,0.2-21.8,0-32.7,0c-0.9,0-1.8,0.1-2.7,0.1c-0.1,1.1,0.6,1.7,1,2.4c3,5.3,4.8,11.1,4.8,17.2
		c0.1,23.5,0.1,47,0,70.5c0,0.9-0.1,1.9-0.3,2.8c-0.6,2.9-2.3,5-5.1,5.8c-2.8,0.9-5.5,0.4-7.8-1.8c-1.9-1.9-2.4-4.1-2.3-6.7
		c0.1-5.6,0.1-11.3,0.1-16.9c0-1.6-0.4-2-1.8-1.7c-4.5,1-8.5,3-11.6,6.5c-3.7,4.2-5.4,9.2-5.4,14.7c0,8.3,0,16.6,0,24.8
		c0,3.5-1.9,6.3-4.9,7.5c-5,2-10.5-1.6-10.5-7c-0.1-8.9,0-17.9,0-26.8c0-5.8,1.4-11.4,4.2-16.4c6-10.6,14.9-17.1,27.2-18.7
		c2.8-0.4,2.9-0.4,2.9-3.3c0-10,0-19.9,0-29.9c0-2.1-0.2-4.3-0.6-6.4c-1.8-9.8-10.1-16.7-20.1-16.7c-33.8,0-67.5,0-101.3,0
		c-4.6,0-9.2-0.6-13.4-2.6c-0.5-0.2-1-0.7-1.7-0.2c0,0.5-0.1,1-0.1,1.6c0,11.5,0,22.9,0,34.4c0,0.4,0,0.8,0,1.1
		c-0.1,1,0.4,1.3,1.4,1.3c0.7,0,1.3,0,2,0c10.4,0,20.9,0,31.3,0c3.6,0,7.1,0.3,10.6,1c8,1.7,14.6,5.7,19.9,11.9
		c6.1,7.2,8.7,15.6,8.8,24.9c0.1,7.4,0,14.9,0,22.3c0,0.8,0.1,1.5,0,2.3c-0.9,7.8-8.2,9.2-12.3,6.3c-2.6-1.8-3.3-4.4-3.3-7.3
		c0-8.7,0.2-17.5-0.2-26.2c-0.5-10.3-8.9-18.9-19.4-19.3c-12.2-0.5-24.4-0.1-36.7-0.2c-1.9,0-2,0.1-2,2.1c0,8.6,0,17.1,0,25.7
		c0,1.2,0.3,1.8,1.6,2c8.2,1.5,15.1,5.5,20.6,11.8c4.7,5.4,7.5,11.6,8.5,18.7c0.4,2.7,0.4,5.4,0.4,8.1c0,7.6,0,15.2,0,22.9
		c0,6-6.4,10-11.5,6.9c-2.5-1.5-3.9-3.6-3.9-6.7c-0.1-9.3,0.4-18.6-0.4-27.9c-0.5-6.2-3.4-11.1-8.2-14.8c-2-1.5-4.2-2.9-6.9-3.1
		c-0.5,1.2-0.3,2.3-0.3,3.4c0,25.2,0,50.4,0,75.6c0,0.8,0,1.7,0,2.5c-0.3,5.1-5.5,8.6-10.3,6.7c-3.4-1.3-5.2-4-5.2-8.2
		c0-21.2,0-42.3,0-63.5c0-0.7,0-1.3,0-2c-0.1-1.5-0.4-1.8-1.9-1.6c-9.4,1.5-15.7,8.3-17.4,16.6c-0.6,3.1-0.5,6.2-0.5,9.3
		c0,6.9,0,13.7,0,20.6c0,4.4-3.2,7.5-7.3,7.7c-4.7,0.3-8.2-4-8.1-7.8c0.2-9,0-18.1,0.1-27.1c0.2-11.2,5-20.3,13.7-27.2
		c5.5-4.5,11.9-7.1,19.1-7.5c2.2-0.1,2.3-0.3,2.3-2.3c0-13.1,0-26.1,0-39.2c0-1.5-0.5-1.9-1.9-1.9c-12.3,0.2-24.6-0.3-36.9,0.3
		c-10.3,0.5-18.5,8.5-19.2,19c-0.6,8.7-0.2,17.5-0.1,26.2c0,3.2-0.7,6-3.6,7.8c-2.7,1.7-5.5,1.7-8.3,0.1c-2.9-1.6-3.9-4.5-3.8-7.4
		c0.3-7.5,0.1-15,0.1-22.6c0-2.6,0-5.3,0.4-7.8c2.7-17.8,17-30.7,35.9-31.1c11.4-0.3,22.8,0,34.1,0c0.8,0,1.5,0,2.3,0
		c0.7,0,1-0.3,1-1c0-0.7,0-1.3,0-2c0-11.8,0-23.5,0-35.3c0-0.8,0.2-1.7-0.2-2.5c-0.3,0-0.6,0-0.8,0.1c-4.3,1.9-8.8,2.3-13.5,2.3
		c-7.3,0-14.7,0-22,0c-19.7,0-39.3,0-59,0c-1.6,0-3.2-0.1-4.8,0.2c-10.8,1.9-17.4,9.9-17.7,20.6c-0.3,12.5,0,25-0.1,37.5
		c0,1.6,0.6,1.9,2,2.2c8.5,1.7,15.6,5.8,21.1,12.5c5.3,6.5,8.1,13.9,8.2,22.2c0.1,4,0,8.1,0,12.1c0,5-0.1,10,0,15
		c0.1,4.1-4.7,9.2-10.4,7.1c-3.1-1.2-5.1-4.1-5.2-7.7c0-8.4,0-16.7,0-25.1c0-5.3-1.6-10.2-5.2-14.2c-2.8-3.1-6.2-5.3-10.7-6.3
		c0,3.8,0,7.2,0,10.7c0,6.6,0,13.2,0,19.7c0,3.9-2.7,6.9-6.3,7.5c-5.2,0.8-9-2.5-9-7.8c0-28.7,0-57.4,0-86c0-6.7,1.8-12.8,5.1-18.5
		c0.3-0.5,0.9-1,0.4-1.8c-0.9,0-1.8,0-2.8,0c-18.3,0-36.7,0-55,0c-2,0-3.9,0.1-5.9,0.1c-1,0-1.9,0.2-2.8,0.5
		c-5.4,1.9-8.7,6.4-8.7,12.2c0,8.1,0,16.2,0,24.3c0,3.3-1.4,5.6-4.2,7.1c-5,2.8-11.2-0.9-11.3-6.7c-0.1-8.7-0.1-17.3,0-26
		c0.1-8.9,4-16.1,11-21.5c5.3-4.2,11.5-5.6,18.2-5.5c31.7,0.1,63.4,0,95,0c18.7,0,37.4,0,56.1,0c2.2,0,4.3-0.4,6.5-0.2
		c6.6,0.4,13.1,0.2,19.7,0c4.5-0.1,7.9-2.2,10.5-5.6c0.8-1.1,1.2-2.2,1.2-3.6c-0.1-7.6-0.1-15.2,0-22.9c0-1.6-0.5-2.2-2-2.7
		c-7.3-2.3-14.8-3.1-22.4-3.2c-8.5-0.1-16.9,0.7-24.9,3.5c-3.4,1.2-6.7,2.5-10,3.8c-12.7,4.9-25.8,5.5-39.1,4.1
		c-6.7-0.7-13-2.7-19.2-5.3c-9.8-4.1-20-6.3-30.7-6c-4.3,0.1-8.6,0.1-12.9,0.7c-6.8,1-13.3,3.2-19.6,5.8c-9.1,3.7-18.6,5.5-28.5,5.5
		c-5.5,0-11.1,0-16.6,0.3c-7.1,0.4-14.3,0.3-21.3-1.6c-5-1.4-9.7-3.6-14.3-5.9c-0.9-0.4-1.7-1.2-2.9-1c0,1.3,0,2.5,0,3.7
		c0.4,10.1,1.1,20.3,2.5,30.3c2.1,15.1,5.3,30,10,44.5c16.8,52.2,46.8,95.5,89.9,129.4c45.2,35.5,96.9,54.3,154.3,56.8
		c19,0.8,37.9-0.5,56.7-3.8c20.6-3.6,40.6-9.5,59.8-17.9c35.1-15.2,65.6-37,91.4-65.2c20.6-22.5,36.8-47.7,48.8-75.8
		c10-23.5,16.4-48,19.4-73.3c0.6-4.9,0.9-9.9,1.3-14.9c0.1-1.4-0.4-2.1-1.8-2.2c-4.5-0.3-8.5-2.3-12.4-4.3c-3-1.5-6-3.1-8.9-4.8
		c-11.7-6.6-24.2-7.4-37.2-5.7c-6.6,0.8-12.8,2.9-18.9,5.4c-13.6,5.8-27.7,6.8-42.2,5.2c-6.7-0.8-13-2.8-19.2-5.3
		c-9.9-4.1-20.2-6-31-6c-10,0-19.6,1.5-28.9,5.3c-8.2,3.4-16.5,6-25.5,6.5c-5,0.3-9.9,0.3-14.9,0c-3.8-0.3-7.6-1-11.4-1.6
		c-1.5-0.4-1.4-1.3-0.9-2.6c2.6-6.7,3.4-13.6,3.2-20.7c-0.2-8.6-1.9-16.9-4.7-25c-2.7-7.8-4.1-15.8-3.5-24c0.2-3.2,0.7-6.4,2.2-9.7
		c4,3.4,8.5,5,13.3,6.2c9.8,2.5,19.6,3.9,29.8,2.8c10.3-1.1,19.4-4.9,27.4-11.4c7.6-6.1,13.3-13.7,18.3-22
		c3.2-5.2,5.6-10.8,8.7-16.1c8.7-14.9,21-25.3,38.1-29.5c1.5-0.4,3-0.7,4.8-1.1c-3.2-4.5-7-8.2-10.9-11.6
		c-6.4-5.6-13.5-10.1-21.2-13.8c-12.8-6.2-26.3-9.4-40.4-9.9c-5.2-0.2-10.3,0.4-15.4,1.1c-15,2.2-28.8,7.6-41.2,16.4
		c-10.3,7.3-19.3,15.8-25.3,27.1c-5.2,9.9-7.8,20.3-7.1,31.4c0.2,2.4,0.5,4.9,1.3,7.4c1-0.5,1.1-1.5,1.4-2.2
		c6.2-14.2,15.1-26.3,27.2-36c13.8-11,29.6-16.3,47.1-17c8-0.3,15.9,0.7,23.7,2.2c0.6,0.1,1.1,0.3,1.6,0.9c-9.2-0.8-18,0-26.8,1.8
		c-19.3,3.9-35.7,12.8-48.4,28.1c-8.6,10.4-14.2,22.3-17.8,35.1c-2.5,8.8-3.6,17.7-3,26.9c-0.2,0-0.3,0.1-0.4,0.1
		c-0.4-0.4-0.9-0.7-1.2-1.1c-5-5.3-8.6-11.6-11.5-18.3c-1.9-4.3-3.4-8.7-5.4-13c-5-10.9-12.9-19.7-22.2-26.9
		c-10.3-8-22.1-12-35.4-11.1c-8.3,0.6-16,3.1-23.2,7c-1.8,1-3.5,2.1-5.3,3.3c-1.6,1.1-3.2,2.3-4.8,3.4c20.1-22.2,43.4-25,69.5-11
		c-0.3-0.7-0.4-1-0.5-1.4c-6.1-11.4-16-17.4-28.4-19.3c-5.9-0.9-11.9-0.9-17.9-0.1c-11.5,1.5-21.6,6.2-30.3,13.7
		c-10.4,9-16.9,20.4-19.8,33.9c-0.6,2.6-0.9,5.3-0.8,8c1,0.3,1.5-0.4,2.2-0.6c5.2-2.2,10.6-3.3,16.2-3c6.5,0.3,12.5,2.3,18.2,5.3
		c5.2,2.7,10.5,4.9,16.3,6.2c5.2,1.2,10.4,1.5,15.6,0.4c7-1.5,12.9-5.1,18-10c2.9-2.8,5.4-5.9,8-9.1c3.2,2.2,5.8,4.8,8.1,7.6
		c4.8,5.8,7.8,12.5,10.2,19.6c5.3,15.7,14.4,28.6,28.4,37.7c1.1,0.7,1.7,1.6,1.8,2.9c0.3,2.3,0.7,4.6,1,6.9
		c0.5,4.8,0.4,9.5-0.4,14.3c-0.7,4.2-1.9,8.2-3.2,12.2c-0.6,1.8-0.6,1.8,1.3,2.5C478.7,249.7,483,251.3,487.3,252.9z"/>
	<path class="st0" d="M489.1,252.9c3.8,0.6,7.6,1.3,11.4,1.6c5,0.4,9.9,0.3,14.9,0c8.9-0.5,17.3-3.1,25.5-6.5
		c9.2-3.8,18.9-5.2,28.9-5.3c10.8,0,21,1.9,31,6c6.2,2.6,12.5,4.6,19.2,5.3c14.5,1.6,28.6,0.6,42.2-5.2c6.1-2.6,12.3-4.6,18.9-5.4
		c12.9-1.7,25.5-0.9,37.2,5.7c2.9,1.7,5.9,3.2,8.9,4.8c3.9,2,7.9,4,12.4,4.3c1.4,0.1,1.9,0.8,1.8,2.2c-0.5,5-0.8,9.9-1.3,14.9
		c-3,25.4-9.4,49.8-19.4,73.3c-12,28-28.2,53.3-48.8,75.8c-25.8,28.2-56.3,50-91.4,65.2c-19.2,8.3-39.2,14.2-59.8,17.9
		c-18.8,3.3-37.7,4.6-56.7,3.8c-57.4-2.6-109.1-21.3-154.3-56.8c-43.1-33.9-73-77.1-89.9-129.4c-4.7-14.5-7.9-29.4-10-44.5
		c-1.4-10.1-2.1-20.2-2.5-30.3c-0.1-1.2,0-2.4,0-3.7c1.2-0.2,2.1,0.5,2.9,1c4.6,2.4,9.3,4.6,14.3,5.9c7,1.9,14.1,2,21.3,1.6
		c5.5-0.3,11.1-0.4,16.6-0.3c9.9,0.1,19.4-1.7,28.5-5.5c6.3-2.6,12.8-4.8,19.6-5.8c4.3-0.6,8.6-0.6,12.9-0.7
		c10.7-0.3,20.8,1.9,30.7,6c6.2,2.6,12.5,4.6,19.2,5.3c13.3,1.4,26.4,0.9,39.1-4.1c3.3-1.3,6.7-2.6,10-3.8
		c8.1-2.8,16.4-3.6,24.9-3.5c7.6,0,15.1,0.9,22.4,3.2c1.5,0.5,2.1,1.1,2,2.7c-0.1,7.6-0.1,15.2,0,22.9c0,1.4-0.4,2.6-1.2,3.6
		c-2.7,3.4-6.1,5.5-10.5,5.6c-6.6,0.2-13.1,0.4-19.7,0c-2.1-0.1-4.3,0.2-6.5,0.2c-18.7,0-37.4,0-56.1,0c-31.7,0-63.4,0-95,0
		c-6.7,0-12.9,1.4-18.2,5.5c-7,5.4-10.9,12.6-11,21.5c-0.1,8.6-0.1,17.3,0,26c0,5.8,6.2,9.4,11.3,6.7c2.8-1.5,4.2-3.9,4.2-7.1
		c-0.1-8.1,0-16.2,0-24.3c0-5.8,3.2-10.3,8.7-12.2c0.9-0.3,1.8-0.5,2.8-0.5c2,0,3.9-0.1,5.9-0.1c18.3,0,36.7,0,55,0
		c0.9,0,1.9,0,2.8,0c0.6,0.8-0.1,1.3-0.4,1.8c-3.4,5.7-5.1,11.8-5.1,18.5c0,28.7,0,57.4,0,86c0,5.3,3.8,8.6,9,7.8
		c3.6-0.6,6.3-3.6,6.3-7.5c0-6.6,0-13.2,0-19.7c0-3.5,0-6.9,0-10.7c4.5,1,7.9,3.2,10.7,6.3c3.6,4,5.2,8.9,5.2,14.2
		c0,8.4,0,16.7,0,25.1c0,3.6,2,6.5,5.2,7.7c5.6,2.1,10.5-3,10.4-7.1c-0.1-5,0-10,0-15c0-4,0.1-8.1,0-12.1
		c-0.1-8.4-2.9-15.8-8.2-22.2c-5.5-6.7-12.7-10.8-21.1-12.5c-1.5-0.3-2-0.7-2-2.2c0.1-12.5-0.2-25,0.1-37.5
		c0.2-10.6,6.9-18.7,17.7-20.6c1.6-0.3,3.2-0.2,4.8-0.2c19.7,0,39.3,0,59,0c7.3,0,14.7,0,22,0c4.6,0,9.2-0.4,13.5-2.3
		c0.2-0.1,0.5-0.1,0.8-0.1c0.4,0.9,0.2,1.7,0.2,2.5c0,11.8,0,23.5,0,35.3c0,0.7,0,1.3,0,2c0,0.7-0.4,1-1,1c-0.8,0-1.5,0-2.3,0
		c-11.4,0-22.8-0.2-34.1,0c-18.9,0.4-33.2,13.3-35.9,31.1c-0.4,2.6-0.4,5.2-0.4,7.8c0,7.5,0.2,15-0.1,22.6c-0.1,2.9,0.9,5.8,3.8,7.4
		c2.8,1.5,5.6,1.6,8.3-0.1c2.9-1.8,3.6-4.6,3.6-7.8c-0.1-8.7-0.4-17.5,0.1-26.2c0.7-10.5,8.8-18.5,19.2-19
		c12.3-0.6,24.6-0.1,36.9-0.3c1.5,0,2,0.5,1.9,1.9c0,13.1,0,26.1,0,39.2c0,1.9-0.2,2.1-2.3,2.3c-7.2,0.4-13.5,3-19.1,7.5
		c-8.6,7-13.5,16-13.7,27.2c-0.1,9,0.1,18.1-0.1,27.1c-0.1,3.9,3.4,8.2,8.1,7.8c4.2-0.3,7.3-3.4,7.3-7.7c0.1-6.9,0-13.7,0-20.6
		c0-3.1-0.1-6.2,0.5-9.3c1.7-8.3,8-15.1,17.4-16.6c1.5-0.2,1.8,0,1.9,1.6c0,0.7,0,1.3,0,2c0,21.2,0,42.3,0,63.5
		c0,4.2,1.8,6.9,5.2,8.2c4.8,1.8,10.1-1.6,10.3-6.7c0-0.8,0-1.7,0-2.5c0-25.2,0-50.4,0-75.6c0-1.1-0.2-2.2,0.3-3.4
		c2.7,0.2,4.9,1.6,6.9,3.1c4.8,3.7,7.7,8.5,8.2,14.8c0.8,9.3,0.2,18.6,0.4,27.9c0,3.1,1.4,5.2,3.9,6.7c5.1,3.1,11.5-0.9,11.5-6.9
		c0-7.6,0-15.2,0-22.9c0-2.7,0-5.4-0.4-8.1c-1-7.1-3.8-13.3-8.5-18.7c-5.5-6.3-12.4-10.2-20.6-11.8c-1.4-0.3-1.6-0.8-1.6-2
		c0-8.6,0-17.1,0-25.7c0-2.1,0.1-2.1,2-2.1c12.2,0.1,24.4-0.3,36.7,0.2c10.6,0.4,18.9,9,19.4,19.3c0.4,8.7,0.2,17.5,0.2,26.2
		c0,3,0.7,5.6,3.3,7.3c4.1,2.8,11.5,1.5,12.3-6.3c0.1-0.7,0-1.5,0-2.3c0-7.4,0-14.9,0-22.3c-0.1-9.3-2.6-17.7-8.8-24.9
		c-5.3-6.2-12-10.2-19.9-11.9c-3.5-0.8-7-1-10.6-1c-10.4,0.1-20.9,0-31.3,0c-0.7,0-1.3,0-2,0c-0.9,0-1.4-0.3-1.4-1.3
		c0-0.4,0-0.8,0-1.1c0-11.5,0-22.9,0-34.4c0-0.6,0.1-1.1,0.1-1.6c0.7-0.5,1.2,0,1.7,0.2c4.3,1.9,8.8,2.6,13.4,2.6
		c33.8,0,67.5,0,101.3,0c10,0,18.3,6.9,20.1,16.7c0.4,2.1,0.6,4.3,0.6,6.4c0.1,10,0,19.9,0,29.9c0,2.9,0,2.9-2.9,3.3
		c-12.3,1.6-21.2,8.1-27.2,18.7c-2.9,5.1-4.2,10.6-4.2,16.4c0,8.9,0,17.9,0,26.8c0,5.4,5.5,9,10.5,7c3.1-1.2,4.9-4,4.9-7.5
		c0-8.3,0-16.6,0-24.8c0-5.6,1.7-10.5,5.4-14.7c3.1-3.5,7.1-5.5,11.6-6.5c1.4-0.3,1.8,0.1,1.8,1.7c0,5.6,0,11.3-0.1,16.9
		c0,2.5,0.4,4.8,2.3,6.7c2.3,2.2,5,2.7,7.8,1.8c2.8-0.9,4.6-2.9,5.1-5.8c0.2-0.9,0.3-1.9,0.3-2.8c0-23.5,0.1-47,0-70.5
		c0-6.1-1.8-11.8-4.8-17.2c-0.4-0.7-1.1-1.3-1-2.4c0.9,0,1.8-0.1,2.7-0.1c10.9,0,21.8,0.2,32.7,0c6.9-0.1,12.6,6.6,12.3,12.4
		c-0.3,7.8-0.1,15.6-0.1,23.4c0,2.5,0.3,4.9,2.2,6.8c2.2,2.3,4.9,3.1,8,2.1c3.1-1,5-3.2,5.3-6.6c0.1-1.5,0-3,0.1-4.5
		c0.1-7.3,0.2-14.7,0.1-22c-0.2-15.9-13.3-26.4-25.2-27c-3.7-0.2-7.3-0.2-11-0.2c-16.9,0-33.9,0-50.8,0c-27.8,0-55.7,0-83.5,0
		c-8.7,0-17.5,0-26.2-0.1c-5.5-0.1-9.7-2.6-12.2-7.6c-0.9-1.8-1.1-3.8-1.2-5.7c-0.1-5.7,0-11.5,0-17.2
		C487.9,252.9,488.5,252.9,489.1,252.9z"/>
	<path class="st0" d="M489.1,252.9c-0.6,0-1.2,0-1.8,0c-4.3-1.6-8.6-3.3-12.9-4.9c-1.8-0.7-1.9-0.7-1.3-2.5c1.3-4,2.5-8,3.2-12.2
		c0.8-4.7,1-9.5,0.4-14.3c-0.3-2.3-0.7-4.6-1-6.9c-0.2-1.4-0.7-2.2-1.8-2.9c-14.1-9.1-23.2-21.9-28.4-37.7
		c-2.4-7.1-5.4-13.8-10.2-19.6c-2.3-2.8-4.9-5.4-8.1-7.6c-2.5,3.2-5,6.3-8,9.1c-5.1,4.9-11,8.5-18,10c-5.2,1.1-10.4,0.8-15.6-0.4
		c-5.7-1.3-11.1-3.5-16.3-6.2c-5.7-3-11.8-5-18.2-5.3c-5.6-0.3-11,0.7-16.2,3c-0.7,0.3-1.2,0.9-2.2,0.6c-0.1-2.7,0.3-5.4,0.8-8
		c2.9-13.5,9.4-24.9,19.8-33.9c8.7-7.6,18.8-12.2,30.3-13.7c6-0.8,12-0.9,17.9,0.1c12.5,2,22.4,7.9,28.4,19.3
		c0.2,0.3,0.3,0.7,0.5,1.4c-26.1-14-49.4-11.2-69.5,11c1.6-1.1,3.1-2.3,4.8-3.4c1.7-1.1,3.4-2.3,5.3-3.3c7.3-3.9,14.9-6.4,23.2-7
		c13.3-0.9,25.1,3.1,35.4,11.1c9.4,7.2,17.2,16,22.2,26.9c2,4.3,3.5,8.7,5.4,13c2.9,6.7,6.4,12.9,11.5,18.3c0.4,0.4,0.8,0.8,1.2,1.1
		c0,0,0.2,0,0.4-0.1c-0.6-9.1,0.5-18.1,3-26.9c3.6-12.9,9.2-24.8,17.8-35.1c12.7-15.3,29.1-24.2,48.4-28.1
		c8.8-1.8,17.6-2.5,26.8-1.8c-0.5-0.7-1-0.8-1.6-0.9c-7.8-1.5-15.8-2.5-23.7-2.2c-17.5,0.7-33.3,6-47.1,17
		c-12.1,9.7-21,21.9-27.2,36c-0.3,0.7-0.4,1.7-1.4,2.2c-0.8-2.4-1.1-4.9-1.3-7.4c-0.7-11.2,1.9-21.6,7.1-31.4
		c6-11.3,15-19.8,25.3-27.1c12.4-8.8,26.2-14.2,41.2-16.4c5.1-0.7,10.2-1.3,15.4-1.1c14.1,0.5,27.6,3.7,40.4,9.9
		c7.7,3.7,14.8,8.2,21.2,13.8c3.9,3.4,7.8,7,10.9,11.6c-1.8,0.4-3.3,0.7-4.8,1.1c-17,4.3-29.3,14.6-38.1,29.5
		c-3.1,5.3-5.5,10.9-8.7,16.1c-5,8.3-10.7,15.9-18.3,22c-8,6.5-17.1,10.3-27.4,11.4c-10.1,1.1-20-0.3-29.8-2.8
		c-4.8-1.2-9.3-2.9-13.3-6.2c-1.6,3.2-2,6.4-2.2,9.7c-0.6,8.3,0.8,16.2,3.5,24c2.8,8.1,4.4,16.5,4.7,25c0.2,7.1-0.6,14-3.2,20.7
		C487.7,251.5,487.6,252.4,489.1,252.9z"/>
</g>
</svg>
