<svg width="15" height="15" viewBox="0 0 15 15" version="1.1" xmlns="http://www.w3.org/2000/svg" xmlns:xlink="http://www.w3.org/1999/xlink">
<title>Group.svg</title>
<desc>Created using Figma</desc>
<g id="Canvas" transform="translate(-16992 -8632)">
<g id="Group">
<g id="Shape">
<use xlink:href="#path0_fill" transform="translate(16992.1 8632.04)" fill="#FFFFFF"/>
</g>
<g id="Oval">
<use xlink:href="#path1_fill" transform="translate(16995.7 8635.71)" fill="#FFFFFF"/>
</g>
<g id="Oval">
<use xlink:href="#path2_fill" transform="translate(17002.8 8634.41)" fill="#FFFFFF"/>
</g>
</g>
</g>
<defs>
<path id="path0_fill" d="M 10.4783 13.9294L 4.4071 13.9294C 2.52357 13.9294 0.980464 12.3863 0.980464 10.5027L 0.980464 4.4071C 0.980464 2.52357 2.52357 0.980466 4.4071 0.980466L 10.5027 0.980466C 12.3863 0.980466 13.9294 2.52357 13.9294 4.4071L 13.9294 10.5027C 13.9294 12.3651 12.3584 13.9294 10.4783 13.9294ZM 10.4783 14.9098C 12.899 14.9098 14.9098 12.9076 14.9098 10.5027L 14.9098 4.4071C 14.9098 1.98208 12.9278 -3.68619e-09 10.5027 -3.68619e-09L 4.4071 -3.68619e-09C 1.98208 -3.68619e-09 2.47408e-06 1.98208 2.47408e-06 4.4071L 2.47408e-06 10.5027C 2.47408e-06 12.9278 1.98208 14.9098 4.4071 14.9098L 10.4783 14.9098Z"/>
<path id="path1_fill" d="M 3.77061 7.54123C 5.85307 7.54123 7.54123 5.85307 7.54123 3.77061C 7.54123 1.68816 5.85307 1.17978e-08 3.77061 1.17978e-08C 1.68816 1.17978e-08 -5.7911e-07 1.68816 -5.7911e-07 3.77061C -5.7911e-07 5.85307 1.68816 7.54123 3.77061 7.54123ZM 3.77061 6.56076C 2.22966 6.56076 0.980468 5.31157 0.980468 3.77061C 0.980468 2.22966 2.22966 0.980466 3.77061 0.980466C 5.31157 0.980466 6.56076 2.22966 6.56076 3.77061C 6.56076 5.31157 5.31157 6.56076 3.77061 6.56076Z"/>
<path id="path2_fill" d="M 0.979217 1.95844C 1.52002 1.95844 1.95843 1.52002 1.95843 0.979218C 1.95843 0.438411 1.52002 0 0.979217 0C 0.43841 0 1.90853e-06 0.438411 1.90853e-06 0.979218C 1.90853e-06 1.52002 0.43841 1.95844 0.979217 1.95844Z"/>
</defs>
</svg>

