<?xml version="1.0" encoding="UTF-8"?>
<svg width="678px" height="256px" viewBox="0 0 678 256" version="1.1" xmlns="http://www.w3.org/2000/svg" xmlns:xlink="http://www.w3.org/1999/xlink">
    <!-- Generator: Sketch 45 (43475) - http://www.bohemiancoding.com/sketch -->
    <title>logo_white</title>
    <desc>Created with Sketch.</desc>
    <defs></defs>
    <g id="Page-1" stroke="none" stroke-width="1" fill="none" fill-rule="evenodd">
        <g id="logo_white" fill-rule="nonzero" fill="#FFFFFF">
            <g id="Group" transform="translate(0.000000, 105.000000)">
                <path d="M40.4,28 C51.2,28 60,31.6 66.6,38 L66.6,30.4 L94.2,30.4 L94.2,110.4 L66.9,110.4 L66.9,101.4 L66.6,101.4 C60.7,107.9 51.3,112.8 40.4,112.8 C17,112.8 0.7,93.9 0.7,70.6 C0.7,47.3 17,28 40.4,28 Z M48.7,89.1 C59.5,89.1 67.2,81.3 67.2,70.4 C67.2,59.3 58.9,51.5 48.7,51.5 C38.3,51.5 30,59.3 30,70.4 C30,81.3 37.4,89.1 48.7,89.1 Z" id="Shape"></path>
                <path d="M166.6,112.6 C155.8,112.6 147,109 140.4,102.6 L140.4,150.8 L112.8,150.8 L112.8,30.3 L140.1,30.3 L140.1,39.3 L140.4,39.3 C146.3,32.8 155.7,27.9 166.6,27.9 C190,27.9 206.3,46.8 206.3,70.1 C206.4,93.6 190,112.6 166.6,112.6 Z M158.4,51.5 C147.6,51.5 139.9,59.3 139.9,70.2 C139.9,81.3 148.2,89.1 158.4,89.1 C168.8,89.1 177.1,81.3 177.1,70.2 C177.1,59.3 169.6,51.5 158.4,51.5 Z" id="Shape"></path>
                <path d="M273.1,112.6 C262.3,112.6 253.5,109 246.9,102.6 L246.9,150.8 L219.3,150.8 L219.3,30.3 L246.6,30.3 L246.6,39.3 L246.9,39.3 C252.8,32.8 262.2,27.9 273.1,27.9 C296.5,27.9 312.8,46.8 312.8,70.1 C312.8,93.6 296.5,112.6 273.1,112.6 Z M264.8,51.5 C254,51.5 246.3,59.3 246.3,70.2 C246.3,81.3 254.6,89.1 264.8,89.1 C275.2,89.1 283.5,81.3 283.5,70.2 C283.5,59.3 276.1,51.5 264.8,51.5 Z" id="Shape"></path>
                <polygon id="Shape" points="325.8 42.5 353.4 42.5 353.4 110.3 325.8 110.3"></polygon>
                <path d="M406,28 C416.8,28 425.6,31.6 432.2,38 L432.2,30.4 L459.8,30.4 L459.8,110.4 L432.5,110.4 L432.5,101.4 L432.2,101.4 C426.3,107.9 416.9,112.8 406,112.8 C382.6,112.8 366.3,93.9 366.3,70.6 C366.3,47.3 382.7,28 406,28 Z M414.3,89.1 C425.1,89.1 432.8,81.3 432.8,70.4 C432.8,59.3 424.5,51.5 414.3,51.5 C403.9,51.5 395.6,59.3 395.6,70.4 C395.6,81.3 403.1,89.1 414.3,89.1 Z" id="Shape"></path>
                <path d="M478.5,30.3 L506.1,30.3 L506.1,38.7 L506.4,38.7 C512.6,32.5 520.6,27.9 529.3,27.9 C544,27.9 564.4,35.2 564.4,57.5 L564.4,110.2 L536.8,110.2 L536.8,65 C536.8,57.1 531.3,49.4 522.5,49.4 C514.2,49.4 506.1,57 506.1,65 L506.1,110.2 L478.5,110.2 L478.5,30.3 Z" id="Shape"></path>
                <path d="M585.3,0.6 L612.9,0.6 L612.9,30.4 L629.7,30.4 L629.7,51.4 L612.9,51.4 L612.9,76.8 C612.9,84.3 614.8,87.9 619.1,87.9 C622.7,87.9 626,85.4 626,85.4 L632.9,107.7 C632.9,107.7 624,112.7 612.6,112.7 C590.6,112.7 585.3,96.3 585.3,82.2 L585.3,51.5 L573.8,51.5 L573.8,30.5 L585.3,30.5 L585.3,0.6 L585.3,0.6 Z" id="Shape"></path>
                <path d="M677.8,94.9 C677.8,104.7 669.9,112.7 659.9,112.7 C650.1,112.7 642.1,104.8 642.1,94.9 C642.1,84.9 650,77 659.9,77 C669.9,76.9 677.8,84.9 677.8,94.9 Z" id="Shape"></path>
            </g>
            <g id="Group" transform="translate(215.000000, 0.000000)">
                <path d="M120.6,79.2 C138.5,17.7 199.6,26.2 199.6,26.2 C134,10.5 114,70 114,70 C107.9,46.3 124.9,27.7 124.9,27.7 C147,2.7 179.1,-4.7 206.6,3.3 C234.1,11.3 246.6,29.6 246.6,29.6 C246.6,29.6 222.4,31.1 208.9,58.4 C195.5,85.7 176.7,104.6 136.7,91.9 C132.1,90.4 126.4,84.7 126.4,84.7 L120.6,79.2 Z" id="Shape"></path>
                <path d="M122.1,75.1 C122.1,75.1 117.8,89.3 114,109.6 C109.8,132.1 110.7,138 110.7,150.9 L138.3,150.9 C138.3,150.9 138.5,147.6 133.3,125.3 C128.2,103.1 138.3,85.9 138.3,85.9 L122.1,75.1 Z" id="Shape"></path>
                <path d="M82.4,59.9 C50.6,35.7 23.2,62.6 23.2,62.6 C50.3,30.5 82.4,52.9 82.4,52.9 C76.7,38.8 61.2,35.8 61.2,35.8 C40.9,31.4 22,39.6 11.2,53.8 C0.4,68 0.9,81.8 0.9,81.8 C0.9,81.8 13.6,73.6 30.4,82.3 C47.2,91 63.6,93.5 79,72.4 C80.8,70 81.5,65 81.5,65 L82.4,59.9 Z" id="Shape"></path>
                <path d="M77.5,56.7 C77.5,56.7 95.8,64.4 107.3,81.4 C118.2,97.5 116.6,97.4 122.7,129.8 L119,147.4 C119,147.4 114.3,124 101.6,101.9 C90.2,82.1 73,69.1 73,69.1 L77.5,56.7 Z" id="Shape"></path>
            </g>
        </g>
    </g>
</svg>