<svg width="15" height="12" viewBox="0 0 15 12" version="1.1" xmlns="http://www.w3.org/2000/svg" xmlns:xlink="http://www.w3.org/1999/xlink">
<title>Vector.svg</title>
<desc>Created using Figma</desc>
<g id="Canvas" transform="translate(-17023 -8634)">
<g id="Vector">
<use xlink:href="#path0_fill" transform="translate(17023.7 8634.12)" fill="#FFFFFF"/>
</g>
</g>
<defs>
<path id="path0_fill" d="M 14.2663 1.38297C 13.7396 1.6151 13.1771 1.77313 12.5834 1.84456C 13.1878 1.48118 13.6529 0.907101 13.8717 0.223204C 13.3056 0.553546 12.678 0.794607 12.0102 0.928529C 11.4763 0.357127 10.7156 -3.32068e-08 9.87098 -3.32068e-08C 8.25319 -3.32068e-08 6.94075 1.31244 6.94075 2.92844C 6.94075 3.16057 6.96754 3.38377 7.01664 3.59805C 4.58104 3.48198 2.42132 2.31239 0.975848 0.544618C 0.722288 0.974063 0.579438 1.47404 0.579438 2.01866C 0.579438 3.03647 1.09727 3.93196 1.88295 4.45783C 1.40261 4.44265 0.949957 4.31052 0.555332 4.09178L 0.555332 4.12749C 0.555332 5.54707 1.56421 6.73273 2.90612 7.00236C 2.6597 7.06843 2.40078 7.10414 2.13383 7.10414C 1.94634 7.10414 1.76778 7.08628 1.58921 7.05236C 1.9642 8.21659 3.0445 9.06387 4.33016 9.08798C 3.3302 9.87366 2.06241 10.3415 0.696397 10.3415C 0.464264 10.3415 0.232132 10.3281 -2.52775e-10 10.3013C 1.30351 11.1316 2.83916 11.6173 4.49979 11.6173C 9.8924 11.6173 12.8387 7.15324 12.8387 3.28735C 12.8387 3.16236 12.8387 3.03736 12.8298 2.91237C 13.4012 2.50167 13.9011 1.98384 14.294 1.39458L 14.2663 1.38297Z"/>
</defs>
</svg>

